<svg xmlns="http://www.w3.org/2000/svg" xmlns:xlink="http://www.w3.org/1999/xlink" width="500" zoomAndPan="magnify" viewBox="0 0 375 374.999991" height="500" preserveAspectRatio="xMidYMid meet" version="1.0"><defs><g/><clipPath id="ee24f19a62"><path d="M 0 14.25 L 374.992188 14.25 L 374.992188 173 L 0 173 Z M 0 14.25 " clip-rule="nonzero"/></clipPath><clipPath id="82a06218b3"><path d="M 49.003906 68 L 71.355469 68 L 71.355469 357.960938 L 49.003906 357.960938 Z M 49.003906 68 " clip-rule="nonzero"/></clipPath><clipPath id="6d24549ac9"><path d="M 54.160156 94.199219 L 67 94.199219 L 67 357.960938 L 54.160156 357.960938 Z M 54.160156 94.199219 " clip-rule="nonzero"/></clipPath><clipPath id="8e7c075cf8"><path d="M 307 68 L 329 68 L 329 357.960938 L 307 357.960938 Z M 307 68 " clip-rule="nonzero"/></clipPath><clipPath id="27b97f6ee9"><path d="M 312.070312 94.199219 L 324.964844 94.199219 L 324.964844 357.960938 L 312.070312 357.960938 Z M 312.070312 94.199219 " clip-rule="nonzero"/></clipPath><clipPath id="cd1eecadcc"><path d="M 0 10.808594 L 374.992188 10.808594 L 374.992188 169.855469 L 0 169.855469 Z M 0 10.808594 " clip-rule="nonzero"/></clipPath></defs><g clip-path="url(#ee24f19a62)"><path fill="#9fcbe5" d="M 374.988281 49.390625 L 374.988281 137.660156 C 374.988281 157.003906 359.304688 172.691406 339.960938 172.691406 L 35.03125 172.691406 C 15.683594 172.691406 0 157.003906 0 137.660156 L 0 49.390625 C 0 30.046875 15.683594 14.363281 35.03125 14.363281 L 339.960938 14.363281 C 359.304688 14.363281 374.988281 30.046875 374.988281 49.390625 " fill-opacity="1" fill-rule="nonzero"/></g><g clip-path="url(#82a06218b3)"><path fill="#9fcbe5" d="M 71.222656 358 L 49.8125 358 L 49.8125 68.167969 L 71.222656 68.167969 L 71.222656 358 " fill-opacity="1" fill-rule="nonzero"/></g><g clip-path="url(#6d24549ac9)"><path fill="#9fcbe5" d="M 56.8125 358 L 54.773438 94.589844 L 66.5 94.589844 L 64.695312 357.984375 L 56.8125 358 " fill-opacity="1" fill-rule="nonzero"/></g><path fill="#9fcbe5" d="M 49.8125 179.101562 C 49.8125 179.101562 60.574219 170.226562 71.222656 177.761719 L 71.46875 162.75 L 49.460938 160.476562 L 49.8125 179.101562 " fill-opacity="1" fill-rule="nonzero"/><g clip-path="url(#8e7c075cf8)"><path fill="#9fcbe5" d="M 328.953125 358 L 307.539062 358 L 307.539062 68.167969 L 328.953125 68.167969 L 328.953125 358 " fill-opacity="1" fill-rule="nonzero"/></g><g clip-path="url(#27b97f6ee9)"><path fill="#9fcbe5" d="M 314.542969 358 L 312.5 94.589844 L 324.222656 94.589844 L 322.421875 357.984375 L 314.542969 358 " fill-opacity="1" fill-rule="nonzero"/></g><path fill="#9fcbe5" d="M 307.539062 179.101562 C 307.539062 179.101562 318.304688 170.226562 328.953125 177.761719 L 329.195312 162.75 L 307.183594 160.476562 L 307.539062 179.101562 " fill-opacity="1" fill-rule="nonzero"/><g clip-path="url(#cd1eecadcc)"><path fill="#d1eff0" d="M 374.988281 45.84375 L 374.988281 134.109375 C 374.988281 153.457031 359.304688 169.140625 339.960938 169.140625 L 35.03125 169.140625 C 15.683594 169.140625 0 153.457031 0 134.109375 L 0 45.84375 C 0 26.496094 15.683594 10.8125 35.03125 10.8125 L 339.960938 10.8125 C 359.304688 10.8125 374.988281 26.496094 374.988281 45.84375 " fill-opacity="1" fill-rule="nonzero"/></g><path fill="#ffffff" d="M 9.941406 132.683594 L 9.941406 47.269531 C 9.941406 33.414062 21.171875 22.179688 35.03125 22.179688 L 339.957031 22.179688 C 353.816406 22.179688 365.050781 33.414062 365.050781 47.269531 L 365.050781 132.683594 C 365.050781 146.542969 353.816406 157.773438 339.957031 157.773438 L 35.03125 157.773438 C 21.171875 157.773438 9.941406 146.542969 9.941406 132.683594 " fill-opacity="1" fill-rule="nonzero"/><path fill="#d1eff0" d="M 339.957031 146.40625 L 35.03125 146.40625 C 26.664062 146.40625 19.878906 139.625 19.878906 131.253906 L 19.878906 48.695312 C 19.878906 40.328125 26.664062 33.546875 35.03125 33.546875 L 339.957031 33.546875 C 348.324219 33.546875 355.109375 40.328125 355.109375 48.695312 L 355.109375 131.253906 C 355.109375 139.625 348.324219 146.40625 339.957031 146.40625 " fill-opacity="1" fill-rule="nonzero"/><g fill="#000000" fill-opacity="1"><g transform="translate(81.770158, 81.228686)"><g><path d="M 12.65625 0.40625 C 10.675781 0.40625 8.914062 0.160156 7.375 -0.328125 C 5.832031 -0.816406 4.546875 -1.457031 3.515625 -2.25 C 2.484375 -3.039062 1.695312 -3.910156 1.15625 -4.859375 L 4.265625 -8.65625 L 4.75 -8.65625 C 5.601562 -7.375 6.691406 -6.351562 8.015625 -5.59375 C 9.335938 -4.84375 10.882812 -4.46875 12.65625 -4.46875 C 14.164062 -4.46875 15.304688 -4.785156 16.078125 -5.421875 C 16.847656 -6.066406 17.234375 -6.945312 17.234375 -8.0625 C 17.234375 -8.738281 17.109375 -9.304688 16.859375 -9.765625 C 16.609375 -10.222656 16.195312 -10.613281 15.625 -10.9375 C 15.050781 -11.257812 14.273438 -11.539062 13.296875 -11.78125 L 9.625 -12.625 C 7.0625 -13.207031 5.148438 -14.175781 3.890625 -15.53125 C 2.640625 -16.894531 2.015625 -18.664062 2.015625 -20.84375 C 2.015625 -22.457031 2.414062 -23.875 3.21875 -25.09375 C 4.03125 -26.320312 5.207031 -27.273438 6.75 -27.953125 C 8.289062 -28.628906 10.132812 -28.96875 12.28125 -28.96875 C 14.488281 -28.96875 16.375 -28.675781 17.9375 -28.09375 C 19.507812 -27.519531 20.835938 -26.632812 21.921875 -25.4375 L 19.125 -21.609375 L 18.640625 -21.609375 C 17.828125 -22.453125 16.898438 -23.082031 15.859375 -23.5 C 14.816406 -23.925781 13.625 -24.140625 12.28125 -24.140625 C 10.738281 -24.140625 9.5625 -23.863281 8.75 -23.3125 C 7.945312 -22.769531 7.546875 -22.019531 7.546875 -21.0625 C 7.546875 -20.15625 7.828125 -19.4375 8.390625 -18.90625 C 8.953125 -18.375 9.929688 -17.957031 11.328125 -17.65625 L 15.078125 -16.875 C 17.847656 -16.289062 19.859375 -15.296875 21.109375 -13.890625 C 22.359375 -12.492188 22.984375 -10.671875 22.984375 -8.421875 C 22.984375 -6.640625 22.597656 -5.085938 21.828125 -3.765625 C 21.066406 -2.441406 19.910156 -1.414062 18.359375 -0.6875 C 16.804688 0.0390625 14.90625 0.40625 12.65625 0.40625 Z M 12.65625 0.40625 "/></g></g></g><g fill="#000000" fill-opacity="1"><g transform="translate(106.299011, 81.228686)"><g><path d="M 12.515625 0.40625 C 10.410156 0.40625 8.5625 -0.0234375 6.96875 -0.890625 C 5.375 -1.753906 4.132812 -3.019531 3.25 -4.6875 C 2.375 -6.363281 1.9375 -8.390625 1.9375 -10.765625 C 1.9375 -13.128906 2.375 -15.148438 3.25 -16.828125 C 4.132812 -18.515625 5.375 -19.789062 6.96875 -20.65625 C 8.5625 -21.519531 10.410156 -21.953125 12.515625 -21.953125 C 14.628906 -21.953125 16.484375 -21.519531 18.078125 -20.65625 C 19.671875 -19.789062 20.910156 -18.515625 21.796875 -16.828125 C 22.679688 -15.148438 23.125 -13.128906 23.125 -10.765625 C 23.125 -8.390625 22.679688 -6.363281 21.796875 -4.6875 C 20.910156 -3.019531 19.671875 -1.753906 18.078125 -0.890625 C 16.484375 -0.0234375 14.628906 0.40625 12.515625 0.40625 Z M 12.515625 -4.1875 C 15.867188 -4.1875 17.546875 -6.378906 17.546875 -10.765625 C 17.546875 -13.046875 17.113281 -14.710938 16.25 -15.765625 C 15.394531 -16.828125 14.148438 -17.359375 12.515625 -17.359375 C 9.171875 -17.359375 7.5 -15.160156 7.5 -10.765625 C 7.5 -6.378906 9.171875 -4.1875 12.515625 -4.1875 Z M 12.515625 -4.1875 "/></g></g></g><g fill="#000000" fill-opacity="1"><g transform="translate(131.335626, 81.228686)"><g><path d="M 3.109375 0 L 3.109375 -21.546875 L 8.296875 -21.546875 L 8.296875 -18.65625 L 8.71875 -18.578125 C 9.414062 -19.734375 10.234375 -20.582031 11.171875 -21.125 C 12.117188 -21.675781 13.332031 -21.953125 14.8125 -21.953125 C 16.4375 -21.953125 17.742188 -21.628906 18.734375 -20.984375 C 19.722656 -20.335938 20.445312 -19.398438 20.90625 -18.171875 L 21.3125 -18.171875 C 21.976562 -19.453125 22.832031 -20.398438 23.875 -21.015625 C 24.925781 -21.640625 26.234375 -21.953125 27.796875 -21.953125 C 32.265625 -21.953125 34.5 -19.46875 34.5 -14.5 L 34.5 0 L 29.078125 0 L 29.078125 -13.8125 C 29.078125 -15.070312 28.828125 -15.984375 28.328125 -16.546875 C 27.835938 -17.109375 27.046875 -17.390625 25.953125 -17.390625 C 22.984375 -17.390625 21.5 -15.398438 21.5 -11.421875 L 21.5 0 L 16.09375 0 L 16.09375 -13.8125 C 16.09375 -15.070312 15.84375 -15.984375 15.34375 -16.546875 C 14.84375 -17.109375 14.046875 -17.390625 12.953125 -17.390625 C 11.554688 -17.390625 10.46875 -16.921875 9.6875 -15.984375 C 8.90625 -15.054688 8.515625 -13.578125 8.515625 -11.546875 L 8.515625 0 Z M 3.109375 0 "/></g></g></g><g fill="#000000" fill-opacity="1"><g transform="translate(168.59761, 81.228686)"><g><path d="M 21.296875 -9.546875 L 7.4375 -9.546875 C 7.59375 -7.671875 8.125 -6.304688 9.03125 -5.453125 C 9.945312 -4.609375 11.195312 -4.1875 12.78125 -4.1875 C 14.007812 -4.1875 15.007812 -4.414062 15.78125 -4.875 C 16.550781 -5.332031 17.171875 -6.03125 17.640625 -6.96875 L 18.046875 -6.96875 L 21.640625 -4.671875 C 20.941406 -3.160156 19.878906 -1.9375 18.453125 -1 C 17.035156 -0.0625 15.144531 0.40625 12.78125 0.40625 C 10.550781 0.40625 8.625 -0.015625 7 -0.859375 C 5.382812 -1.703125 4.132812 -2.960938 3.25 -4.640625 C 2.375 -6.316406 1.9375 -8.359375 1.9375 -10.765625 C 1.9375 -13.210938 2.394531 -15.273438 3.3125 -16.953125 C 4.238281 -18.628906 5.488281 -19.878906 7.0625 -20.703125 C 8.644531 -21.535156 10.421875 -21.953125 12.390625 -21.953125 C 15.429688 -21.953125 17.757812 -21.144531 19.375 -19.53125 C 21 -17.914062 21.8125 -15.546875 21.8125 -12.421875 C 21.8125 -11.285156 21.773438 -10.40625 21.703125 -9.78125 Z M 16.640625 -13.046875 C 16.585938 -14.691406 16.207031 -15.882812 15.5 -16.625 C 14.789062 -17.375 13.753906 -17.75 12.390625 -17.75 C 9.648438 -17.75 8.039062 -16.179688 7.5625 -13.046875 Z M 16.640625 -13.046875 "/></g></g></g><g fill="#000000" fill-opacity="1"><g transform="translate(192.013296, 81.228686)"><g><path d="M 14.859375 -5.140625 L 16.265625 -1.140625 C 15.679688 -0.648438 14.945312 -0.269531 14.0625 0 C 13.175781 0.269531 12.175781 0.40625 11.0625 0.40625 C 8.726562 0.40625 6.953125 -0.226562 5.734375 -1.5 C 4.523438 -2.769531 3.921875 -4.613281 3.921875 -7.03125 L 3.921875 -17.265625 L 0.640625 -17.265625 L 0.640625 -21.5625 L 3.921875 -21.5625 L 3.921875 -25.765625 L 9.34375 -26.640625 L 9.34375 -21.5625 L 15.453125 -21.5625 L 15.453125 -17.265625 L 9.34375 -17.265625 L 9.34375 -7.421875 C 9.34375 -6.359375 9.5625 -5.582031 10 -5.09375 C 10.445312 -4.601562 11.09375 -4.359375 11.9375 -4.359375 C 12.894531 -4.359375 13.734375 -4.617188 14.453125 -5.140625 Z M 14.859375 -5.140625 "/></g></g></g><g fill="#000000" fill-opacity="1"><g transform="translate(208.749947, 81.228686)"><g><path d="M 3.109375 0 L 3.109375 -30.203125 L 8.515625 -30.203125 L 8.515625 -18.734375 L 8.921875 -18.65625 C 9.640625 -19.707031 10.519531 -20.519531 11.5625 -21.09375 C 12.601562 -21.664062 13.859375 -21.953125 15.328125 -21.953125 C 20.085938 -21.953125 22.46875 -19.257812 22.46875 -13.875 L 22.46875 0 L 17.046875 0 L 17.046875 -13.1875 C 17.046875 -14.65625 16.753906 -15.722656 16.171875 -16.390625 C 15.585938 -17.054688 14.675781 -17.390625 13.4375 -17.390625 C 11.925781 -17.390625 10.726562 -16.882812 9.84375 -15.875 C 8.957031 -14.863281 8.515625 -13.289062 8.515625 -11.15625 L 8.515625 0 Z M 3.109375 0 "/></g></g></g><g fill="#000000" fill-opacity="1"><g transform="translate(233.981856, 81.228686)"><g><path d="M 5.796875 -24.125 C 4.828125 -24.125 4.035156 -24.421875 3.421875 -25.015625 C 2.804688 -25.609375 2.5 -26.375 2.5 -27.3125 C 2.5 -28.226562 2.804688 -28.984375 3.421875 -29.578125 C 4.035156 -30.171875 4.828125 -30.46875 5.796875 -30.46875 C 6.453125 -30.46875 7.03125 -30.332031 7.53125 -30.0625 C 8.039062 -29.789062 8.4375 -29.414062 8.71875 -28.9375 C 9 -28.457031 9.140625 -27.914062 9.140625 -27.3125 C 9.140625 -26.695312 9 -26.144531 8.71875 -25.65625 C 8.4375 -25.175781 8.039062 -24.800781 7.53125 -24.53125 C 7.03125 -24.257812 6.453125 -24.125 5.796875 -24.125 Z M 3.109375 0 L 3.109375 -21.546875 L 8.515625 -21.546875 L 8.515625 0 Z M 3.109375 0 "/></g></g></g><g fill="#000000" fill-opacity="1"><g transform="translate(245.582285, 81.228686)"><g><path d="M 3.109375 0 L 3.109375 -21.546875 L 8.296875 -21.546875 L 8.296875 -18.375 L 8.71875 -18.28125 C 10.050781 -20.726562 12.222656 -21.953125 15.234375 -21.953125 C 17.722656 -21.953125 19.550781 -21.273438 20.71875 -19.921875 C 21.882812 -18.566406 22.46875 -16.59375 22.46875 -14 L 22.46875 0 L 17.046875 0 L 17.046875 -13.34375 C 17.046875 -14.769531 16.757812 -15.800781 16.1875 -16.4375 C 15.613281 -17.070312 14.695312 -17.390625 13.4375 -17.390625 C 11.882812 -17.390625 10.675781 -16.882812 9.8125 -15.875 C 8.945312 -14.875 8.515625 -13.300781 8.515625 -11.15625 L 8.515625 0 Z M 3.109375 0 "/></g></g></g><g fill="#000000" fill-opacity="1"><g transform="translate(270.814194, 81.228686)"><g><path d="M 11.171875 9.140625 C 7.617188 9.140625 4.992188 8.617188 3.296875 7.578125 C 1.609375 6.535156 0.765625 5.082031 0.765625 3.21875 C 0.765625 2.09375 1.125 1.164062 1.84375 0.4375 C 2.570312 -0.28125 3.613281 -0.765625 4.96875 -1.015625 L 4.96875 -1.421875 C 4.238281 -1.867188 3.710938 -2.363281 3.390625 -2.90625 C 3.066406 -3.445312 2.90625 -4.070312 2.90625 -4.78125 C 2.90625 -6.519531 4.035156 -7.6875 6.296875 -8.28125 L 6.296875 -8.6875 C 5.128906 -9.351562 4.253906 -10.175781 3.671875 -11.15625 C 3.085938 -12.144531 2.796875 -13.335938 2.796875 -14.734375 C 2.796875 -16.160156 3.125 -17.414062 3.78125 -18.5 C 4.4375 -19.59375 5.398438 -20.441406 6.671875 -21.046875 C 7.941406 -21.648438 9.460938 -21.953125 11.234375 -21.953125 C 13.023438 -21.953125 14.457031 -21.640625 15.53125 -21.015625 C 16.195312 -21.984375 16.582031 -23.097656 16.6875 -24.359375 L 17.09375 -24.609375 L 20.984375 -23.65625 C 20.859375 -22.625 20.554688 -21.757812 20.078125 -21.0625 C 19.597656 -20.363281 18.847656 -19.742188 17.828125 -19.203125 L 17.828125 -18.765625 C 19.046875 -17.703125 19.65625 -16.210938 19.65625 -14.296875 C 19.65625 -12.972656 19.320312 -11.78125 18.65625 -10.71875 C 17.988281 -9.664062 17.019531 -8.832031 15.75 -8.21875 C 14.476562 -7.613281 12.972656 -7.3125 11.234375 -7.3125 L 10.40625 -7.328125 C 9.882812 -7.347656 9.519531 -7.359375 9.3125 -7.359375 C 8.820312 -7.359375 8.4375 -7.222656 8.15625 -6.953125 C 7.875 -6.691406 7.734375 -6.351562 7.734375 -5.9375 C 7.734375 -5.476562 7.914062 -5.125 8.28125 -4.875 C 8.644531 -4.625 9.179688 -4.484375 9.890625 -4.453125 L 14.703125 -4.28125 C 19.472656 -4.132812 21.859375 -2.082031 21.859375 1.875 C 21.859375 3.269531 21.503906 4.507812 20.796875 5.59375 C 20.085938 6.6875 18.9375 7.550781 17.34375 8.1875 C 15.757812 8.820312 13.703125 9.140625 11.171875 9.140625 Z M 11.234375 -11.09375 C 12.273438 -11.09375 13.085938 -11.398438 13.671875 -12.015625 C 14.253906 -12.628906 14.546875 -13.5 14.546875 -14.625 C 14.546875 -15.757812 14.253906 -16.628906 13.671875 -17.234375 C 13.085938 -17.835938 12.273438 -18.140625 11.234375 -18.140625 C 10.179688 -18.140625 9.367188 -17.835938 8.796875 -17.234375 C 8.222656 -16.628906 7.9375 -15.757812 7.9375 -14.625 C 7.9375 -13.476562 8.222656 -12.601562 8.796875 -12 C 9.367188 -11.394531 10.179688 -11.09375 11.234375 -11.09375 Z M 11.171875 5.21875 C 13.023438 5.21875 14.367188 4.957031 15.203125 4.4375 C 16.046875 3.914062 16.46875 3.238281 16.46875 2.40625 C 16.46875 1.726562 16.25 1.226562 15.8125 0.90625 C 15.382812 0.59375 14.703125 0.421875 13.765625 0.390625 L 9.515625 0.203125 C 9.367188 0.203125 9.234375 0.191406 9.109375 0.171875 C 8.984375 0.160156 8.863281 0.15625 8.75 0.15625 C 7.84375 0.15625 7.148438 0.347656 6.671875 0.734375 C 6.191406 1.128906 5.953125 1.671875 5.953125 2.359375 C 5.953125 3.273438 6.390625 3.976562 7.265625 4.46875 C 8.140625 4.96875 9.441406 5.21875 11.171875 5.21875 Z M 11.171875 5.21875 "/></g></g></g><g fill="#000000" fill-opacity="1"><g transform="translate(57.254535, 126.228683)"><g><path d="M 11.5625 0 L 5.90625 0 L 0.78125 -21.546875 L 5.796875 -21.546875 L 8.96875 -6.96875 L 9.375 -6.96875 L 13.484375 -21.546875 L 18.171875 -21.546875 L 22.40625 -6.96875 L 22.8125 -6.96875 L 25.859375 -21.546875 L 30.75 -21.546875 L 25.6875 0 L 20 0 L 15.921875 -14.671875 L 15.515625 -14.671875 Z M 11.5625 0 "/></g></g></g><g fill="#000000" fill-opacity="1"><g transform="translate(88.755368, 126.228683)"><g><path d="M 21.296875 -9.546875 L 7.4375 -9.546875 C 7.59375 -7.671875 8.125 -6.304688 9.03125 -5.453125 C 9.945312 -4.609375 11.195312 -4.1875 12.78125 -4.1875 C 14.007812 -4.1875 15.007812 -4.414062 15.78125 -4.875 C 16.550781 -5.332031 17.171875 -6.03125 17.640625 -6.96875 L 18.046875 -6.96875 L 21.640625 -4.671875 C 20.941406 -3.160156 19.878906 -1.9375 18.453125 -1 C 17.035156 -0.0625 15.144531 0.40625 12.78125 0.40625 C 10.550781 0.40625 8.625 -0.015625 7 -0.859375 C 5.382812 -1.703125 4.132812 -2.960938 3.25 -4.640625 C 2.375 -6.316406 1.9375 -8.359375 1.9375 -10.765625 C 1.9375 -13.210938 2.394531 -15.273438 3.3125 -16.953125 C 4.238281 -18.628906 5.488281 -19.878906 7.0625 -20.703125 C 8.644531 -21.535156 10.421875 -21.953125 12.390625 -21.953125 C 15.429688 -21.953125 17.757812 -21.144531 19.375 -19.53125 C 21 -17.914062 21.8125 -15.546875 21.8125 -12.421875 C 21.8125 -11.285156 21.773438 -10.40625 21.703125 -9.78125 Z M 16.640625 -13.046875 C 16.585938 -14.691406 16.207031 -15.882812 15.5 -16.625 C 14.789062 -17.375 13.753906 -17.75 12.390625 -17.75 C 9.648438 -17.75 8.039062 -16.179688 7.5625 -13.046875 Z M 16.640625 -13.046875 "/></g></g></g><g fill="#000000" fill-opacity="1"><g transform="translate(112.171054, 126.228683)"><g><path d="M 3.109375 0 L 3.109375 -21.546875 L 8.296875 -21.546875 L 8.296875 -18.375 L 8.71875 -18.28125 C 10.050781 -20.726562 12.222656 -21.953125 15.234375 -21.953125 C 17.722656 -21.953125 19.550781 -21.273438 20.71875 -19.921875 C 21.882812 -18.566406 22.46875 -16.59375 22.46875 -14 L 22.46875 0 L 17.046875 0 L 17.046875 -13.34375 C 17.046875 -14.769531 16.757812 -15.800781 16.1875 -16.4375 C 15.613281 -17.070312 14.695312 -17.390625 13.4375 -17.390625 C 11.882812 -17.390625 10.675781 -16.882812 9.8125 -15.875 C 8.945312 -14.875 8.515625 -13.300781 8.515625 -11.15625 L 8.515625 0 Z M 3.109375 0 "/></g></g></g><g fill="#000000" fill-opacity="1"><g transform="translate(137.402964, 126.228683)"><g><path d="M 14.859375 -5.140625 L 16.265625 -1.140625 C 15.679688 -0.648438 14.945312 -0.269531 14.0625 0 C 13.175781 0.269531 12.175781 0.40625 11.0625 0.40625 C 8.726562 0.40625 6.953125 -0.226562 5.734375 -1.5 C 4.523438 -2.769531 3.921875 -4.613281 3.921875 -7.03125 L 3.921875 -17.265625 L 0.640625 -17.265625 L 0.640625 -21.5625 L 3.921875 -21.5625 L 3.921875 -25.765625 L 9.34375 -26.640625 L 9.34375 -21.5625 L 15.453125 -21.5625 L 15.453125 -17.265625 L 9.34375 -17.265625 L 9.34375 -7.421875 C 9.34375 -6.359375 9.5625 -5.582031 10 -5.09375 C 10.445312 -4.601562 11.09375 -4.359375 11.9375 -4.359375 C 12.894531 -4.359375 13.734375 -4.617188 14.453125 -5.140625 Z M 14.859375 -5.140625 "/></g></g></g><g fill="#000000" fill-opacity="1"><g transform="translate(154.139615, 126.228683)"><g/></g></g><g fill="#000000" fill-opacity="1"><g transform="translate(163.572292, 126.228683)"><g><path d="M 11.5625 0 L 5.90625 0 L 0.78125 -21.546875 L 5.796875 -21.546875 L 8.96875 -6.96875 L 9.375 -6.96875 L 13.484375 -21.546875 L 18.171875 -21.546875 L 22.40625 -6.96875 L 22.8125 -6.96875 L 25.859375 -21.546875 L 30.75 -21.546875 L 25.6875 0 L 20 0 L 15.921875 -14.671875 L 15.515625 -14.671875 Z M 11.5625 0 "/></g></g></g><g fill="#000000" fill-opacity="1"><g transform="translate(195.073126, 126.228683)"><g><path d="M 3.109375 0 L 3.109375 -21.546875 L 8.359375 -21.546875 L 8.359375 -18.34375 L 8.765625 -18.265625 C 9.285156 -19.460938 9.96875 -20.335938 10.8125 -20.890625 C 11.664062 -21.453125 12.695312 -21.734375 13.90625 -21.734375 C 15.132812 -21.734375 16.066406 -21.523438 16.703125 -21.109375 L 15.78125 -16.453125 L 15.375 -16.375 C 15.019531 -16.507812 14.679688 -16.609375 14.359375 -16.671875 C 14.035156 -16.742188 13.640625 -16.78125 13.171875 -16.78125 C 11.660156 -16.78125 10.503906 -16.25 9.703125 -15.1875 C 8.910156 -14.125 8.515625 -12.421875 8.515625 -10.078125 L 8.515625 0 Z M 3.109375 0 "/></g></g></g><g fill="#000000" fill-opacity="1"><g transform="translate(211.966011, 126.228683)"><g><path d="M 12.515625 0.40625 C 10.410156 0.40625 8.5625 -0.0234375 6.96875 -0.890625 C 5.375 -1.753906 4.132812 -3.019531 3.25 -4.6875 C 2.375 -6.363281 1.9375 -8.390625 1.9375 -10.765625 C 1.9375 -13.128906 2.375 -15.148438 3.25 -16.828125 C 4.132812 -18.515625 5.375 -19.789062 6.96875 -20.65625 C 8.5625 -21.519531 10.410156 -21.953125 12.515625 -21.953125 C 14.628906 -21.953125 16.484375 -21.519531 18.078125 -20.65625 C 19.671875 -19.789062 20.910156 -18.515625 21.796875 -16.828125 C 22.679688 -15.148438 23.125 -13.128906 23.125 -10.765625 C 23.125 -8.390625 22.679688 -6.363281 21.796875 -4.6875 C 20.910156 -3.019531 19.671875 -1.753906 18.078125 -0.890625 C 16.484375 -0.0234375 14.628906 0.40625 12.515625 0.40625 Z M 12.515625 -4.1875 C 15.867188 -4.1875 17.546875 -6.378906 17.546875 -10.765625 C 17.546875 -13.046875 17.113281 -14.710938 16.25 -15.765625 C 15.394531 -16.828125 14.148438 -17.359375 12.515625 -17.359375 C 9.171875 -17.359375 7.5 -15.160156 7.5 -10.765625 C 7.5 -6.378906 9.171875 -4.1875 12.515625 -4.1875 Z M 12.515625 -4.1875 "/></g></g></g><g fill="#000000" fill-opacity="1"><g transform="translate(237.002627, 126.228683)"><g><path d="M 3.109375 0 L 3.109375 -21.546875 L 8.296875 -21.546875 L 8.296875 -18.375 L 8.71875 -18.28125 C 10.050781 -20.726562 12.222656 -21.953125 15.234375 -21.953125 C 17.722656 -21.953125 19.550781 -21.273438 20.71875 -19.921875 C 21.882812 -18.566406 22.46875 -16.59375 22.46875 -14 L 22.46875 0 L 17.046875 0 L 17.046875 -13.34375 C 17.046875 -14.769531 16.757812 -15.800781 16.1875 -16.4375 C 15.613281 -17.070312 14.695312 -17.390625 13.4375 -17.390625 C 11.882812 -17.390625 10.675781 -16.882812 9.8125 -15.875 C 8.945312 -14.875 8.515625 -13.300781 8.515625 -11.15625 L 8.515625 0 Z M 3.109375 0 "/></g></g></g><g fill="#000000" fill-opacity="1"><g transform="translate(262.234547, 126.228683)"><g><path d="M 11.171875 9.140625 C 7.617188 9.140625 4.992188 8.617188 3.296875 7.578125 C 1.609375 6.535156 0.765625 5.082031 0.765625 3.21875 C 0.765625 2.09375 1.125 1.164062 1.84375 0.4375 C 2.570312 -0.28125 3.613281 -0.765625 4.96875 -1.015625 L 4.96875 -1.421875 C 4.238281 -1.867188 3.710938 -2.363281 3.390625 -2.90625 C 3.066406 -3.445312 2.90625 -4.070312 2.90625 -4.78125 C 2.90625 -6.519531 4.035156 -7.6875 6.296875 -8.28125 L 6.296875 -8.6875 C 5.128906 -9.351562 4.253906 -10.175781 3.671875 -11.15625 C 3.085938 -12.144531 2.796875 -13.335938 2.796875 -14.734375 C 2.796875 -16.160156 3.125 -17.414062 3.78125 -18.5 C 4.4375 -19.59375 5.398438 -20.441406 6.671875 -21.046875 C 7.941406 -21.648438 9.460938 -21.953125 11.234375 -21.953125 C 13.023438 -21.953125 14.457031 -21.640625 15.53125 -21.015625 C 16.195312 -21.984375 16.582031 -23.097656 16.6875 -24.359375 L 17.09375 -24.609375 L 20.984375 -23.65625 C 20.859375 -22.625 20.554688 -21.757812 20.078125 -21.0625 C 19.597656 -20.363281 18.847656 -19.742188 17.828125 -19.203125 L 17.828125 -18.765625 C 19.046875 -17.703125 19.65625 -16.210938 19.65625 -14.296875 C 19.65625 -12.972656 19.320312 -11.78125 18.65625 -10.71875 C 17.988281 -9.664062 17.019531 -8.832031 15.75 -8.21875 C 14.476562 -7.613281 12.972656 -7.3125 11.234375 -7.3125 L 10.40625 -7.328125 C 9.882812 -7.347656 9.519531 -7.359375 9.3125 -7.359375 C 8.820312 -7.359375 8.4375 -7.222656 8.15625 -6.953125 C 7.875 -6.691406 7.734375 -6.351562 7.734375 -5.9375 C 7.734375 -5.476562 7.914062 -5.125 8.28125 -4.875 C 8.644531 -4.625 9.179688 -4.484375 9.890625 -4.453125 L 14.703125 -4.28125 C 19.472656 -4.132812 21.859375 -2.082031 21.859375 1.875 C 21.859375 3.269531 21.503906 4.507812 20.796875 5.59375 C 20.085938 6.6875 18.9375 7.550781 17.34375 8.1875 C 15.757812 8.820312 13.703125 9.140625 11.171875 9.140625 Z M 11.234375 -11.09375 C 12.273438 -11.09375 13.085938 -11.398438 13.671875 -12.015625 C 14.253906 -12.628906 14.546875 -13.5 14.546875 -14.625 C 14.546875 -15.757812 14.253906 -16.628906 13.671875 -17.234375 C 13.085938 -17.835938 12.273438 -18.140625 11.234375 -18.140625 C 10.179688 -18.140625 9.367188 -17.835938 8.796875 -17.234375 C 8.222656 -16.628906 7.9375 -15.757812 7.9375 -14.625 C 7.9375 -13.476562 8.222656 -12.601562 8.796875 -12 C 9.367188 -11.394531 10.179688 -11.09375 11.234375 -11.09375 Z M 11.171875 5.21875 C 13.023438 5.21875 14.367188 4.957031 15.203125 4.4375 C 16.046875 3.914062 16.46875 3.238281 16.46875 2.40625 C 16.46875 1.726562 16.25 1.226562 15.8125 0.90625 C 15.382812 0.59375 14.703125 0.421875 13.765625 0.390625 L 9.515625 0.203125 C 9.367188 0.203125 9.234375 0.191406 9.109375 0.171875 C 8.984375 0.160156 8.863281 0.15625 8.75 0.15625 C 7.84375 0.15625 7.148438 0.347656 6.671875 0.734375 C 6.191406 1.128906 5.953125 1.671875 5.953125 2.359375 C 5.953125 3.273438 6.390625 3.976562 7.265625 4.46875 C 8.140625 4.96875 9.441406 5.21875 11.171875 5.21875 Z M 11.171875 5.21875 "/></g></g></g><g fill="#000000" fill-opacity="1"><g transform="translate(284.634707, 126.228683)"><g><path d="M 5.515625 0.171875 C 4.816406 0.171875 4.203125 0.03125 3.671875 -0.25 C 3.148438 -0.53125 2.75 -0.914062 2.46875 -1.40625 C 2.1875 -1.90625 2.046875 -2.46875 2.046875 -3.09375 C 2.046875 -3.71875 2.1875 -4.273438 2.46875 -4.765625 C 2.75 -5.265625 3.148438 -5.65625 3.671875 -5.9375 C 4.203125 -6.226562 4.816406 -6.375 5.515625 -6.375 C 6.210938 -6.375 6.820312 -6.234375 7.34375 -5.953125 C 7.875 -5.671875 8.28125 -5.28125 8.5625 -4.78125 C 8.84375 -4.289062 8.984375 -3.734375 8.984375 -3.109375 C 8.984375 -2.160156 8.664062 -1.375 8.03125 -0.75 C 7.40625 -0.132812 6.566406 0.171875 5.515625 0.171875 Z M 5.515625 0.171875 "/></g></g></g><g fill="#000000" fill-opacity="1"><g transform="translate(295.668779, 126.228683)"><g><path d="M 5.515625 0.171875 C 4.816406 0.171875 4.203125 0.03125 3.671875 -0.25 C 3.148438 -0.53125 2.75 -0.914062 2.46875 -1.40625 C 2.1875 -1.90625 2.046875 -2.46875 2.046875 -3.09375 C 2.046875 -3.71875 2.1875 -4.273438 2.46875 -4.765625 C 2.75 -5.265625 3.148438 -5.65625 3.671875 -5.9375 C 4.203125 -6.226562 4.816406 -6.375 5.515625 -6.375 C 6.210938 -6.375 6.820312 -6.234375 7.34375 -5.953125 C 7.875 -5.671875 8.28125 -5.28125 8.5625 -4.78125 C 8.84375 -4.289062 8.984375 -3.734375 8.984375 -3.109375 C 8.984375 -2.160156 8.664062 -1.375 8.03125 -0.75 C 7.40625 -0.132812 6.566406 0.171875 5.515625 0.171875 Z M 5.515625 0.171875 "/></g></g></g><g fill="#000000" fill-opacity="1"><g transform="translate(306.702852, 126.228683)"><g><path d="M 5.515625 0.171875 C 4.816406 0.171875 4.203125 0.03125 3.671875 -0.25 C 3.148438 -0.53125 2.75 -0.914062 2.46875 -1.40625 C 2.1875 -1.90625 2.046875 -2.46875 2.046875 -3.09375 C 2.046875 -3.71875 2.1875 -4.273438 2.46875 -4.765625 C 2.75 -5.265625 3.148438 -5.65625 3.671875 -5.9375 C 4.203125 -6.226562 4.816406 -6.375 5.515625 -6.375 C 6.210938 -6.375 6.820312 -6.234375 7.34375 -5.953125 C 7.875 -5.671875 8.28125 -5.28125 8.5625 -4.78125 C 8.84375 -4.289062 8.984375 -3.734375 8.984375 -3.109375 C 8.984375 -2.160156 8.664062 -1.375 8.03125 -0.75 C 7.40625 -0.132812 6.566406 0.171875 5.515625 0.171875 Z M 5.515625 0.171875 "/></g></g></g></svg>