<svg xmlns="http://www.w3.org/2000/svg" xmlns:xlink="http://www.w3.org/1999/xlink" width="500" zoomAndPan="magnify" viewBox="0 0 375 374.999991" height="500" preserveAspectRatio="xMidYMid meet" version="1.0"><defs><clipPath id="8858b80766"><path d="M 19.773438 0 L 355.023438 0 L 355.023438 375 L 19.773438 375 Z M 19.773438 0 " clip-rule="nonzero"/></clipPath></defs><path fill="#f6f4e7" d="M 335.375 48.101562 L 335.375 326.945312 C 335.375 342.640625 322.652344 355.363281 306.957031 355.363281 L 68.007812 355.363281 C 52.3125 355.363281 39.589844 342.640625 39.589844 326.945312 L 39.589844 48.101562 C 39.589844 32.40625 52.3125 19.679688 68.007812 19.679688 L 306.957031 19.679688 C 322.652344 19.679688 335.375 32.40625 335.375 48.101562 Z M 335.375 48.101562 " fill-opacity="1" fill-rule="nonzero"/><path fill="#79ad94" d="M 298.355469 242.75 L 274.570312 242.75 C 281.570312 242.75 287.242188 237.078125 287.242188 230.078125 L 287.242188 120.609375 C 287.242188 113.609375 281.570312 107.933594 274.570312 107.933594 L 100.398438 107.933594 C 93.394531 107.933594 87.722656 113.609375 87.722656 120.609375 L 87.722656 230.078125 C 87.722656 237.078125 93.394531 242.75 100.398438 242.75 L 76.609375 242.75 C 75.28125 242.75 74.199219 243.832031 74.199219 245.167969 L 74.199219 246.789062 C 74.199219 258.011719 83.296875 267.109375 94.519531 267.109375 L 280.445312 267.109375 C 291.667969 267.109375 300.769531 258.011719 300.769531 246.789062 L 300.769531 245.167969 C 300.769531 243.832031 299.683594 242.75 298.355469 242.75 Z M 245.1875 179.878906 C 245.1875 184.101562 241.765625 187.519531 237.542969 187.519531 L 204.210938 187.519531 L 213.566406 165.308594 L 134.289062 165.308594 C 129.765625 165.308594 126.097656 168.972656 126.097656 173.496094 L 126.097656 179.332031 C 126.097656 183.839844 129.738281 187.492188 134.238281 187.519531 L 133.738281 187.519531 C 129.519531 187.519531 126.097656 184.101562 126.097656 179.878906 L 126.097656 172.953125 C 126.097656 168.730469 129.519531 165.304688 133.738281 165.304688 L 237.542969 165.304688 C 241.765625 165.304688 245.1875 168.730469 245.1875 172.953125 Z M 309.558594 2.65625 L 65.40625 2.65625 C 41.78125 2.65625 22.5625 21.875 22.5625 45.5 L 22.5625 329.546875 C 22.5625 353.171875 41.78125 372.390625 65.40625 372.390625 L 309.558594 372.390625 C 333.183594 372.390625 352.402344 353.171875 352.402344 329.546875 L 352.402344 45.5 C 352.402344 21.875 333.183594 2.65625 309.558594 2.65625 Z M 335.378906 329.546875 C 335.378906 343.808594 323.820312 355.363281 309.558594 355.363281 L 65.40625 355.363281 C 51.144531 355.363281 39.589844 343.808594 39.589844 329.546875 L 39.589844 45.5 C 39.589844 31.238281 51.144531 19.679688 65.40625 19.679688 L 309.558594 19.679688 C 323.820312 19.679688 335.378906 31.238281 335.378906 45.5 Z M 335.378906 329.546875 " fill-opacity="1" fill-rule="nonzero"/><g clip-path="url(#8858b80766)"><path fill="#000000" d="M 273.460938 213.671875 L 273.460938 137.015625 C 273.460938 128.578125 266.601562 121.71875 258.167969 121.71875 L 116.796875 121.71875 C 108.363281 121.71875 101.503906 128.578125 101.503906 137.015625 L 101.503906 213.671875 C 101.503906 222.105469 108.363281 228.96875 116.796875 228.96875 L 258.167969 228.96875 C 266.601562 228.96875 273.460938 222.105469 273.460938 213.671875 Z M 128.722656 179.109375 L 128.722656 173.722656 C 128.722656 170.527344 131.320312 167.933594 134.511719 167.933594 L 139.691406 167.933594 L 132.675781 184.59375 C 130.382812 183.824219 128.722656 181.65625 128.722656 179.109375 Z M 145.382812 167.933594 L 157.171875 167.933594 L 150.027344 184.894531 L 138.242188 184.894531 Z M 162.863281 167.933594 L 174.652344 167.933594 L 167.507812 184.894531 L 155.722656 184.894531 Z M 180.347656 167.933594 L 192.132812 167.933594 L 184.988281 184.894531 L 173.203125 184.894531 Z M 190.683594 184.894531 L 197.828125 167.933594 L 209.613281 167.933594 L 202.472656 184.894531 Z M 208.164062 184.894531 L 215.308594 167.933594 L 236.773438 167.933594 C 239.964844 167.933594 242.5625 170.527344 242.5625 173.722656 L 242.5625 179.109375 C 242.5625 182.285156 239.992188 184.867188 236.824219 184.894531 Z M 95.835938 269.734375 L 279.128906 269.734375 C 292.507812 269.734375 303.390625 258.847656 303.390625 245.46875 L 303.390625 245.320312 C 303.390625 242.457031 301.0625 240.128906 298.199219 240.128906 L 285.378906 240.128906 C 288.160156 237.160156 289.867188 233.175781 289.867188 228.800781 L 289.867188 121.886719 C 289.867188 112.746094 282.433594 105.308594 273.292969 105.308594 L 101.671875 105.308594 C 92.53125 105.308594 85.097656 112.746094 85.097656 121.886719 L 85.097656 228.800781 C 85.097656 233.175781 86.804688 237.160156 89.585938 240.128906 L 76.769531 240.128906 C 73.902344 240.128906 71.574219 242.457031 71.574219 245.320312 L 71.574219 245.46875 C 71.574219 258.847656 82.457031 269.734375 95.835938 269.734375 Z M 90.34375 228.800781 L 90.34375 121.886719 C 90.34375 115.640625 95.425781 110.558594 101.671875 110.558594 L 273.292969 110.558594 C 279.539062 110.558594 284.621094 115.640625 284.621094 121.886719 L 284.621094 228.800781 C 284.621094 235.046875 279.539062 240.128906 273.292969 240.128906 L 101.671875 240.128906 C 95.425781 240.128906 90.34375 235.046875 90.34375 228.800781 Z M 76.820312 245.375 L 154.09375 245.375 C 155.277344 250.96875 160.25 255.183594 166.195312 255.183594 L 208.773438 255.183594 C 214.714844 255.183594 219.6875 250.96875 220.871094 245.375 L 298.144531 245.375 L 298.144531 245.46875 C 298.144531 255.957031 289.613281 264.484375 279.128906 264.484375 L 95.835938 264.484375 C 85.351562 264.484375 76.820312 255.957031 76.820312 245.46875 Z M 309.558594 0.03125 L 65.40625 0.03125 C 40.335938 0.03125 19.9375 20.429688 19.9375 45.5 L 19.9375 329.546875 C 19.9375 354.617188 40.335938 375.015625 65.40625 375.015625 L 309.558594 375.015625 C 334.628906 375.015625 355.027344 354.617188 355.027344 329.546875 L 355.027344 45.5 C 355.027344 20.429688 334.628906 0.03125 309.558594 0.03125 Z M 349.777344 329.546875 C 349.777344 351.722656 331.734375 369.765625 309.558594 369.765625 L 65.40625 369.765625 C 43.230469 369.765625 25.1875 351.722656 25.1875 329.546875 L 25.1875 45.5 C 25.1875 23.320312 43.230469 5.28125 65.40625 5.28125 L 309.558594 5.28125 C 331.734375 5.28125 349.777344 23.320312 349.777344 45.5 Z M 309.558594 17.058594 L 65.40625 17.058594 C 49.722656 17.058594 36.964844 29.816406 36.964844 45.5 L 36.964844 329.546875 C 36.964844 345.230469 49.722656 357.988281 65.40625 357.988281 L 309.558594 357.988281 C 325.242188 357.988281 338 345.230469 338 329.546875 L 338 45.5 C 338 29.816406 325.242188 17.058594 309.558594 17.058594 Z M 306.957031 22.304688 C 321.183594 22.304688 332.753906 33.878906 332.753906 48.101562 L 332.753906 326.945312 C 332.753906 341.167969 321.183594 352.738281 306.957031 352.738281 L 68.007812 352.738281 C 53.785156 352.738281 42.214844 341.167969 42.214844 326.945312 L 42.214844 48.101562 C 42.214844 33.878906 53.785156 22.304688 68.007812 22.304688 Z M 97.035156 72.082031 L 86.265625 38.738281 L 93.683594 38.738281 L 100.0625 59.601562 L 106.246094 38.738281 L 112.101562 38.738281 L 118.332031 59.613281 L 124.714844 38.738281 L 132.082031 38.738281 L 121.3125 72.082031 L 115.503906 72.082031 L 109.15625 51.101562 L 102.84375 72.082031 Z M 138.128906 67.644531 C 139.734375 69.21875 141.605469 70.445312 143.75 71.328125 C 145.890625 72.207031 148.21875 72.648438 150.738281 72.648438 C 153.226562 72.648438 155.523438 72.207031 157.632812 71.328125 C 159.742188 70.445312 161.585938 69.226562 163.160156 67.667969 C 164.734375 66.109375 165.960938 64.28125 166.84375 62.1875 C 167.726562 60.09375 168.167969 57.835938 168.167969 55.410156 C 168.167969 52.953125 167.734375 50.679688 166.867188 48.585938 C 166 46.492188 164.765625 44.664062 163.160156 43.105469 C 161.554688 41.546875 159.6875 40.335938 157.5625 39.46875 C 155.4375 38.605469 153.132812 38.171875 150.644531 38.171875 C 148.125 38.171875 145.792969 38.605469 143.652344 39.46875 C 141.511719 40.335938 139.65625 41.546875 138.082031 43.105469 C 136.503906 44.664062 135.277344 46.484375 134.394531 48.5625 C 133.515625 50.640625 133.074219 52.90625 133.074219 55.363281 C 133.074219 57.789062 133.515625 60.046875 134.394531 62.140625 C 135.277344 64.234375 136.523438 66.070312 138.128906 67.644531 Z M 141.953125 49.90625 C 142.773438 48.347656 143.929688 47.136719 145.425781 46.269531 C 146.921875 45.40625 148.660156 44.972656 150.644531 44.972656 C 152.09375 44.972656 153.429688 45.214844 154.660156 45.703125 C 155.886719 46.191406 156.941406 46.902344 157.824219 47.828125 C 158.703125 48.757812 159.382812 49.859375 159.855469 51.136719 C 160.328125 52.410156 160.5625 53.820312 160.5625 55.363281 C 160.5625 57.441406 160.144531 59.265625 159.3125 60.839844 C 158.476562 62.417969 157.320312 63.644531 155.839844 64.527344 C 154.359375 65.40625 152.628906 65.847656 150.644531 65.847656 C 149.164062 65.847656 147.816406 65.605469 146.605469 65.117188 C 145.394531 64.628906 144.347656 63.917969 143.464844 62.992188 C 142.582031 62.0625 141.90625 60.953125 141.433594 59.660156 C 140.960938 58.371094 140.726562 56.9375 140.726562 55.363281 C 140.726562 53.285156 141.132812 51.464844 141.953125 49.90625 Z M 180.304688 58.386719 L 181.066406 58.386719 L 190.980469 72.082031 L 199.8125 72.082031 L 189.179688 58.121094 C 190.292969 57.921875 191.324219 57.605469 192.253906 57.15625 C 193.957031 56.339844 195.277344 55.199219 196.222656 53.734375 C 197.167969 52.269531 197.640625 50.53125 197.640625 48.515625 C 197.640625 46.625 197.175781 44.941406 196.246094 43.460938 C 195.316406 41.980469 194.019531 40.824219 192.347656 39.988281 C 190.679688 39.15625 188.726562 38.738281 186.492188 38.738281 L 172.84375 38.738281 L 172.84375 72.082031 L 180.304688 72.082031 Z M 185.640625 44.546875 C 187.089844 44.546875 188.214844 44.941406 189.019531 45.726562 C 189.820312 46.515625 190.222656 47.507812 190.222656 48.703125 C 190.222656 49.960938 189.8125 50.960938 188.996094 51.703125 C 188.175781 52.441406 187.042969 52.8125 185.59375 52.8125 L 180.304688 52.8125 L 180.304688 44.546875 Z M 210.4375 72.082031 L 202.976562 72.082031 L 202.976562 38.738281 L 210.4375 38.738281 L 210.4375 53.730469 L 222.71875 38.738281 L 231.929688 38.738281 L 218.441406 54.605469 L 232.449219 72.082031 L 223.144531 72.082031 L 210.4375 55.632812 Z M 251.386719 72.082031 L 243.925781 72.082031 L 243.925781 38.738281 L 251.386719 38.738281 Z M 265.226562 72.082031 L 257.761719 72.082031 L 257.761719 38.738281 L 263.003906 38.738281 L 278.78125 58.949219 L 278.78125 38.738281 L 286.289062 38.738281 L 286.289062 72.082031 L 280.765625 72.082031 L 265.226562 52.125 Z M 86.621094 294.664062 C 84.90625 293.8125 82.992188 293.386719 80.882812 293.386719 L 66.902344 293.386719 L 66.902344 326.734375 L 74.363281 326.734375 L 74.363281 314.59375 L 80.882812 314.59375 C 82.992188 314.59375 84.90625 314.171875 86.621094 313.320312 C 88.335938 312.46875 89.691406 311.25 90.683594 309.660156 C 91.675781 308.070312 92.171875 306.1875 92.171875 304.015625 C 92.171875 301.8125 91.675781 299.914062 90.683594 298.324219 C 89.691406 296.734375 88.335938 295.511719 86.621094 294.664062 Z M 84.046875 306.613281 C 83.605469 307.335938 83.015625 307.878906 82.277344 308.242188 C 81.535156 308.605469 80.710938 308.785156 79.796875 308.785156 L 74.363281 308.785156 L 74.363281 299.199219 L 79.796875 299.199219 C 80.710938 299.199219 81.535156 299.378906 82.277344 299.742188 C 83.015625 300.101562 83.605469 300.644531 84.046875 301.371094 C 84.488281 302.09375 84.707031 302.976562 84.707031 304.015625 C 84.710938 305.023438 84.488281 305.890625 84.046875 306.613281 Z M 115.644531 311.808594 C 117.34375 310.988281 118.667969 309.847656 119.613281 308.382812 C 120.558594 306.917969 121.03125 305.179688 121.03125 303.164062 C 121.03125 301.277344 120.566406 299.59375 119.636719 298.109375 C 118.707031 296.632812 117.410156 295.472656 115.738281 294.640625 C 114.070312 293.804688 112.117188 293.386719 109.882812 293.386719 L 96.234375 293.386719 L 96.234375 326.734375 L 103.695312 326.734375 L 103.695312 313.035156 L 104.457031 313.035156 L 114.371094 326.734375 L 123.203125 326.734375 L 112.570312 312.773438 C 113.683594 312.570312 114.714844 312.257812 115.644531 311.808594 Z M 103.695312 299.199219 L 109.03125 299.199219 C 110.480469 299.199219 111.605469 299.59375 112.410156 300.378906 C 113.214844 301.167969 113.613281 302.15625 113.613281 303.355469 C 113.613281 304.613281 113.203125 305.613281 112.386719 306.351562 C 111.566406 307.09375 110.433594 307.464844 108.984375 307.464844 L 103.695312 307.464844 Z M 154.609375 297.757812 C 153.003906 296.199219 151.140625 294.988281 149.015625 294.121094 C 146.890625 293.253906 144.582031 292.820312 142.09375 292.820312 C 139.574219 292.820312 137.246094 293.253906 135.105469 294.121094 C 132.960938 294.988281 131.105469 296.199219 129.53125 297.757812 C 127.957031 299.316406 126.726562 301.132812 125.847656 303.210938 C 124.964844 305.289062 124.523438 307.558594 124.523438 310.015625 C 124.523438 312.4375 124.964844 314.699219 125.847656 316.792969 C 126.726562 318.886719 127.972656 320.71875 129.578125 322.292969 C 131.183594 323.867188 133.058594 325.097656 135.199219 325.976562 C 137.339844 326.859375 139.667969 327.300781 142.1875 327.300781 C 144.675781 327.300781 146.976562 326.859375 149.085938 325.976562 C 151.195312 325.097656 153.035156 323.875 154.609375 322.316406 C 156.183594 320.757812 157.414062 318.933594 158.292969 316.839844 C 159.175781 314.746094 159.617188 312.484375 159.617188 310.0625 C 159.617188 307.605469 159.183594 305.332031 158.316406 303.234375 C 157.453125 301.140625 156.214844 299.316406 154.609375 297.757812 Z M 150.761719 315.492188 C 149.925781 317.066406 148.769531 318.296875 147.289062 319.175781 C 145.808594 320.058594 144.078125 320.5 142.09375 320.5 C 140.613281 320.5 139.269531 320.253906 138.054688 319.765625 C 136.84375 319.277344 135.796875 318.570312 134.914062 317.640625 C 134.035156 316.710938 133.355469 315.601562 132.882812 314.3125 C 132.414062 313.019531 132.175781 311.589844 132.175781 310.015625 C 132.175781 307.933594 132.585938 306.117188 133.402344 304.558594 C 134.222656 303 135.378906 301.789062 136.875 300.921875 C 138.371094 300.054688 140.109375 299.621094 142.09375 299.621094 C 143.542969 299.621094 144.882812 299.867188 146.109375 300.355469 C 147.335938 300.84375 148.390625 301.550781 149.273438 302.480469 C 150.15625 303.410156 150.832031 304.511719 151.304688 305.785156 C 151.777344 307.0625 152.011719 308.472656 152.011719 310.015625 C 152.011719 312.089844 151.59375 313.917969 150.761719 315.492188 Z M 179.878906 307.839844 L 197.402344 307.839844 L 197.402344 308.925781 C 197.402344 312.894531 196.683594 316.246094 195.253906 318.988281 C 193.820312 321.726562 191.835938 323.796875 189.300781 325.199219 C 186.765625 326.597656 183.847656 327.300781 180.539062 327.300781 C 178.085938 327.300781 175.792969 326.851562 173.667969 325.953125 C 171.542969 325.058594 169.691406 323.820312 168.117188 322.246094 C 166.542969 320.671875 165.308594 318.84375 164.410156 316.769531 C 163.511719 314.6875 163.066406 312.4375 163.066406 310.015625 C 163.066406 307.558594 163.519531 305.296875 164.433594 303.234375 C 165.347656 301.175781 166.621094 299.363281 168.261719 297.804688 C 169.898438 296.246094 171.792969 295.027344 173.953125 294.144531 C 176.109375 293.261719 178.429688 292.820312 180.917969 292.820312 C 183.78125 292.820312 186.398438 293.347656 188.757812 294.402344 C 191.121094 295.460938 193.074219 296.898438 194.617188 298.726562 L 189.515625 303.824219 C 188.476562 302.441406 187.222656 301.394531 185.757812 300.683594 C 184.296875 299.976562 182.664062 299.621094 180.871094 299.621094 C 178.917969 299.621094 177.171875 300.054688 175.628906 300.921875 C 174.085938 301.789062 172.882812 303 172.015625 304.558594 C 171.148438 306.117188 170.714844 307.933594 170.714844 310.015625 C 170.714844 312.0625 171.140625 313.871094 171.992188 315.445312 C 172.84375 317.019531 174.007812 318.253906 175.488281 319.152344 C 176.964844 320.050781 178.667969 320.5 180.585938 320.5 C 182.507812 320.5 184.152344 320.128906 185.523438 319.390625 C 186.894531 318.648438 187.949219 317.570312 188.6875 316.152344 C 188.988281 315.578125 189.210938 314.941406 189.390625 314.273438 L 179.878906 314.121094 Z M 221.253906 311.808594 C 222.953125 310.988281 224.277344 309.847656 225.222656 308.382812 C 226.164062 306.917969 226.636719 305.179688 226.636719 303.164062 C 226.636719 301.277344 226.171875 299.59375 225.246094 298.109375 C 224.316406 296.632812 223.015625 295.472656 221.347656 294.640625 C 219.679688 293.804688 217.726562 293.386719 215.492188 293.386719 L 201.839844 293.386719 L 201.839844 326.734375 L 209.304688 326.734375 L 209.304688 313.035156 L 210.066406 313.035156 L 219.976562 326.734375 L 228.8125 326.734375 L 218.179688 312.773438 C 219.289062 312.570312 220.320312 312.257812 221.253906 311.808594 Z M 209.304688 299.199219 L 214.640625 299.199219 C 216.089844 299.199219 217.214844 299.59375 218.019531 300.378906 C 218.820312 301.167969 219.222656 302.15625 219.222656 303.355469 C 219.222656 304.613281 218.8125 305.613281 217.996094 306.351562 C 217.175781 307.09375 216.042969 307.464844 214.59375 307.464844 L 209.304688 307.464844 Z M 239.4375 320.308594 L 256.015625 320.308594 L 256.015625 326.734375 L 231.976562 326.734375 L 231.976562 293.386719 L 255.734375 293.386719 L 255.734375 299.8125 L 239.4375 299.8125 L 239.4375 306.566406 L 254.316406 306.566406 L 254.316406 312.847656 L 239.4375 312.847656 Z M 282.203125 312.660156 C 282.785156 313.824219 283.078125 315.289062 283.078125 317.050781 C 283.078125 320.230469 281.945312 322.726562 279.679688 324.535156 C 277.410156 326.347656 274.261719 327.253906 270.230469 327.253906 C 267.460938 327.253906 265.089844 326.8125 263.125 325.929688 C 261.15625 325.050781 259.367188 323.695312 257.761719 321.867188 L 262.582031 317.050781 C 263.652344 318.277344 264.839844 319.230469 266.144531 319.910156 C 267.453125 320.585938 268.972656 320.925781 270.703125 320.925781 C 272.246094 320.925781 273.449219 320.632812 274.316406 320.050781 C 275.183594 319.46875 275.617188 318.671875 275.617188 317.664062 C 275.617188 316.785156 275.339844 316.058594 274.789062 315.492188 C 274.238281 314.925781 273.492188 314.4375 272.546875 314.027344 C 271.601562 313.621094 270.578125 313.234375 269.476562 312.871094 C 268.375 312.507812 267.261719 312.078125 266.144531 311.570312 C 265.027344 311.070312 264.003906 310.453125 263.078125 309.730469 C 262.148438 309.007812 261.398438 308.078125 260.832031 306.941406 C 260.265625 305.808594 259.984375 304.410156 259.984375 302.738281 C 259.984375 300.660156 260.480469 298.882812 261.46875 297.402344 C 262.460938 295.921875 263.855469 294.796875 265.652344 294.027344 C 267.445312 293.253906 269.476562 292.867188 271.742188 292.867188 C 274.105469 292.867188 276.246094 293.277344 278.167969 294.097656 C 280.085938 294.914062 281.675781 296.019531 282.9375 297.402344 L 278.070312 302.269531 C 277.0625 301.226562 276.046875 300.457031 275.027344 299.953125 C 274.003906 299.449219 272.859375 299.199219 271.601562 299.199219 C 270.308594 299.199219 269.289062 299.441406 268.53125 299.929688 C 267.777344 300.417969 267.398438 301.117188 267.398438 302.03125 C 267.398438 302.851562 267.679688 303.519531 268.25 304.039062 C 268.816406 304.558594 269.5625 305.007812 270.492188 305.382812 C 271.417969 305.761719 272.441406 306.140625 273.5625 306.519531 C 274.679688 306.894531 275.796875 307.328125 276.914062 307.816406 C 278.03125 308.304688 279.046875 308.945312 279.960938 309.730469 C 280.875 310.515625 281.621094 311.496094 282.203125 312.660156 Z M 298.429688 292.867188 C 300.789062 292.867188 302.929688 293.277344 304.851562 294.097656 C 306.773438 294.914062 308.363281 296.019531 309.621094 297.402344 L 304.757812 302.269531 C 303.75 301.226562 302.734375 300.457031 301.710938 299.953125 C 300.6875 299.449219 299.546875 299.199219 298.285156 299.199219 C 296.996094 299.199219 295.972656 299.441406 295.21875 299.929688 C 294.460938 300.417969 294.082031 301.117188 294.082031 302.03125 C 294.082031 302.851562 294.367188 303.519531 294.933594 304.039062 C 295.5 304.558594 296.246094 305.007812 297.175781 305.382812 C 298.105469 305.761719 299.128906 306.140625 300.246094 306.519531 C 301.363281 306.894531 302.484375 307.328125 303.601562 307.816406 C 304.71875 308.304688 305.734375 308.945312 306.648438 309.730469 C 307.558594 310.515625 308.308594 311.496094 308.890625 312.660156 C 309.472656 313.824219 309.765625 315.289062 309.765625 317.050781 C 309.765625 320.230469 308.628906 322.726562 306.363281 324.535156 C 304.097656 326.347656 300.949219 327.253906 296.917969 327.253906 C 294.144531 327.253906 291.777344 326.8125 289.808594 325.929688 C 287.839844 325.050781 286.054688 323.695312 284.449219 321.867188 L 289.265625 317.050781 C 290.335938 318.277344 291.523438 319.230469 292.832031 319.910156 C 294.136719 320.585938 295.65625 320.925781 297.390625 320.925781 C 298.933594 320.925781 300.136719 320.632812 301.003906 320.050781 C 301.867188 319.46875 302.300781 318.671875 302.300781 317.664062 C 302.300781 316.785156 302.027344 316.058594 301.476562 315.492188 C 300.925781 314.925781 300.175781 314.4375 299.230469 314.027344 C 298.285156 313.621094 297.261719 313.234375 296.160156 312.871094 C 295.058594 312.507812 293.949219 312.078125 292.832031 311.570312 C 291.714844 311.070312 290.691406 310.453125 289.761719 309.730469 C 288.832031 309.007812 288.085938 308.078125 287.519531 306.941406 C 286.953125 305.808594 286.667969 304.410156 286.667969 302.738281 C 286.667969 300.660156 287.164062 298.882812 288.15625 297.402344 C 289.148438 295.921875 290.539062 294.796875 292.335938 294.027344 C 294.128906 293.253906 296.160156 292.867188 298.429688 292.867188 Z M 298.429688 292.867188 " fill-opacity="1" fill-rule="nonzero"/></g></svg>