<svg xmlns="http://www.w3.org/2000/svg" xmlns:xlink="http://www.w3.org/1999/xlink" width="500" zoomAndPan="magnify" viewBox="0 0 375 374.999991" height="500" preserveAspectRatio="xMidYMid meet" version="1.0"><defs><clipPath id="717956377c"><path d="M 89 128 L 311 128 L 311 304 L 89 304 Z M 89 128 " clip-rule="nonzero"/></clipPath><clipPath id="f5a84be6cc"><path d="M 5.066406 114.097656 L 168.832031 -2.441406 L 355.816406 260.320312 L 192.050781 376.859375 Z M 5.066406 114.097656 " clip-rule="nonzero"/></clipPath><clipPath id="9dd0a782c6"><path d="M 5.066406 114.097656 L 168.832031 -2.441406 L 355.816406 260.320312 L 192.050781 376.859375 Z M 5.066406 114.097656 " clip-rule="nonzero"/></clipPath><clipPath id="fabbda0ab4"><path d="M 35 60 L 120 60 L 120 139 L 35 139 Z M 35 60 " clip-rule="nonzero"/></clipPath><clipPath id="532bd16f70"><path d="M 5.066406 114.097656 L 168.832031 -2.441406 L 355.816406 260.320312 L 192.050781 376.859375 Z M 5.066406 114.097656 " clip-rule="nonzero"/></clipPath><clipPath id="de12de4719"><path d="M 5.066406 114.097656 L 168.832031 -2.441406 L 355.816406 260.320312 L 192.050781 376.859375 Z M 5.066406 114.097656 " clip-rule="nonzero"/></clipPath><clipPath id="cc31bc8fe8"><path d="M 127 124 L 314 124 L 314 307 L 127 307 Z M 127 124 " clip-rule="nonzero"/></clipPath><clipPath id="e6a869ed8f"><path d="M 5.066406 114.097656 L 168.832031 -2.441406 L 355.816406 260.320312 L 192.050781 376.859375 Z M 5.066406 114.097656 " clip-rule="nonzero"/></clipPath><clipPath id="1ccee93b40"><path d="M 5.066406 114.097656 L 168.832031 -2.441406 L 355.816406 260.320312 L 192.050781 376.859375 Z M 5.066406 114.097656 " clip-rule="nonzero"/></clipPath><clipPath id="2bafba4d3a"><path d="M 86 155 L 135 155 L 135 221 L 86 221 Z M 86 155 " clip-rule="nonzero"/></clipPath><clipPath id="5cf4027c9b"><path d="M 5.066406 114.097656 L 168.832031 -2.441406 L 355.816406 260.320312 L 192.050781 376.859375 Z M 5.066406 114.097656 " clip-rule="nonzero"/></clipPath><clipPath id="3b2ca315c2"><path d="M 5.066406 114.097656 L 168.832031 -2.441406 L 355.816406 260.320312 L 192.050781 376.859375 Z M 5.066406 114.097656 " clip-rule="nonzero"/></clipPath><clipPath id="166fde0f6c"><path d="M 32 56 L 124 56 L 124 143 L 32 143 Z M 32 56 " clip-rule="nonzero"/></clipPath><clipPath id="988f5062d5"><path d="M 5.066406 114.097656 L 168.832031 -2.441406 L 355.816406 260.320312 L 192.050781 376.859375 Z M 5.066406 114.097656 " clip-rule="nonzero"/></clipPath><clipPath id="77e192ff20"><path d="M 5.066406 114.097656 L 168.832031 -2.441406 L 355.816406 260.320312 L 192.050781 376.859375 Z M 5.066406 114.097656 " clip-rule="nonzero"/></clipPath></defs><path fill="#79ad94" d="M 192.40625 1.234375 C 210.136719 1.113281 257.355469 1.472656 299.84375 34.808594 C 332.183594 60.175781 345.15625 91.628906 350.878906 105.984375 C 377.386719 172.527344 356.355469 233.523438 349.535156 252.367188 C 341.488281 274.59375 329.484375 307.804688 297.160156 334.289062 C 243.023438 378.632812 164.515625 377.398438 109.144531 350.402344 C 100.121094 346.011719 64.878906 327.839844 37.96875 287.285156 C 33.039062 279.855469 8.648438 241.933594 7.078125 186.5625 C 6.554688 167.960938 5.0625 115.839844 40.652344 71.066406 C 63.308594 42.570312 90.8125 29.851562 109.144531 21.378906 C 124.039062 14.488281 152.925781 1.5 192.40625 1.234375 Z M 192.40625 1.234375 " fill-opacity="1" fill-rule="nonzero"/><g clip-path="url(#717956377c)"><g clip-path="url(#f5a84be6cc)"><g clip-path="url(#9dd0a782c6)"><path fill="#ffffff" d="M 276.578125 178.046875 C 263.054688 178.785156 260.621094 195.496094 260.113281 206.414062 C 259.054688 188.328125 237.34375 168.800781 222.097656 186.070312 C 217.925781 190.992188 216.398438 197.800781 217.269531 204.25 C 215.167969 193 205.472656 180.878906 193.007812 183.5625 C 179.5 187.128906 177.285156 203.492188 177.496094 215.484375 C 174.476562 212.75 174.492188 122.832031 148.867188 128.460938 C 136.492188 131.59375 133.277344 154.066406 132.175781 171.410156 C 122.691406 164.160156 113.898438 156.835938 102.328125 160.183594 C 88.980469 163.914062 85.503906 181.644531 94.125 191.929688 C 98.730469 198.140625 104.40625 200.753906 111.164062 204.5 C 117.933594 208.195312 123.207031 211.746094 130.578125 217.011719 L 131.179688 217.003906 C 132.757812 245.695312 133.554688 284.199219 163.464844 297.796875 C 195.226562 306.683594 227.550781 302.101562 260.175781 302 C 274.890625 301.761719 291 299.691406 300.953125 288.84375 C 316.65625 273.390625 308.382812 238.300781 306.097656 221.691406 C 302.144531 205.480469 297.207031 178.019531 276.578125 178.046875 Z M 276.578125 178.046875 " fill-opacity="1" fill-rule="nonzero"/></g></g></g><g clip-path="url(#fabbda0ab4)"><g clip-path="url(#532bd16f70)"><g clip-path="url(#de12de4719)"><path fill="#ffffff" d="M 79.519531 76.039062 C 76.355469 85.128906 77.027344 91.953125 81.269531 102.421875 C 76.027344 97.410156 71.585938 93.78125 64.679688 91.53125 C 50.503906 86.96875 32.984375 98.363281 35.363281 114.253906 C 41.042969 143.609375 84.714844 141.320312 106.527344 134.777344 C 116.738281 115.136719 133.664062 62.582031 98.210938 60.085938 C 88.558594 60.445312 82.660156 66.921875 79.519531 76.039062 Z M 79.519531 76.039062 " fill-opacity="1" fill-rule="nonzero"/></g></g></g><g clip-path="url(#cc31bc8fe8)"><g clip-path="url(#e6a869ed8f)"><g clip-path="url(#1ccee93b40)"><path fill="#ffffff" d="M 180.914062 215.191406 C 180.964844 205.527344 181.703125 193.097656 191.089844 187.855469 C 190.964844 187.945312 190.5625 188.09375 191.203125 187.820312 C 192.035156 187.417969 192.929688 187.105469 193.835938 186.878906 C 194.921875 186.574219 193.5 186.933594 194.085938 186.839844 C 194.820312 186.691406 195.53125 186.648438 196.269531 186.636719 C 196.40625 186.632812 197.109375 186.644531 196.488281 186.621094 C 197.542969 186.660156 198.597656 186.839844 199.59375 187.0625 C 200.316406 187.292969 199.859375 187.105469 200.601562 187.367188 C 202.070312 187.859375 203.738281 188.765625 204.414062 189.257812 C 205.488281 189.984375 206.460938 190.828125 207.371094 191.714844 C 207.46875 191.785156 207.859375 192.203125 207.390625 191.746094 C 211.480469 196.183594 213.523438 202.125 214.554688 207.953125 C 216.757812 207.453125 218.960938 206.957031 221.132812 206.480469 C 220.582031 204.59375 220.339844 201.835938 220.398438 199.699219 C 220.394531 199.886719 220.386719 199.941406 220.417969 199.917969 C 220.523438 198.167969 220.796875 196.53125 221.242188 194.867188 C 221.257812 194.761719 221.421875 194.273438 221.257812 194.761719 C 221.960938 191.890625 224.488281 188.183594 225.78125 187.125 C 226.863281 186.167969 228.039062 185.332031 229.300781 184.621094 C 228.636719 185 229.570312 184.476562 229.714844 184.417969 C 230.6875 183.957031 231.730469 183.589844 232.730469 183.296875 C 232.8125 183.28125 233.804688 183.042969 233.074219 183.191406 C 236.042969 182.660156 237.484375 182.65625 240.347656 183.410156 C 240.21875 183.363281 239.78125 183.207031 240.367188 183.441406 C 241.496094 183.847656 242.574219 184.382812 243.613281 184.992188 C 242.96875 184.613281 243.804688 185.136719 243.878906 185.175781 C 244.933594 185.867188 245.914062 186.660156 246.832031 187.492188 C 247.230469 187.859375 247.632812 188.226562 247.980469 188.582031 C 248.023438 188.644531 248.761719 189.421875 248.261719 188.847656 C 250.285156 191.035156 251.988281 193.496094 253.371094 196.09375 C 254.027344 197.210938 255.609375 201.199219 256.109375 203.402344 C 256.480469 204.582031 256.171875 209.964844 259.890625 209.828125 C 265.347656 209.527344 262.960938 202.25 264.175781 198.59375 C 264.929688 192.335938 268.136719 184.75 272.253906 182.5625 C 274.453125 181.464844 276.386719 181.4375 278.75 181.429688 C 278.046875 181.421875 278.992188 181.445312 279.097656 181.460938 C 279.582031 181.488281 280.039062 181.539062 280.511719 181.617188 C 280.777344 181.664062 281.042969 181.707031 281.328125 181.78125 C 281.484375 181.808594 282.621094 182.164062 281.773438 181.886719 C 282.695312 182.203125 283.582031 182.597656 284.449219 183.097656 C 296.75 192.34375 300.667969 211.507812 303.53125 226.773438 C 305.304688 242.535156 309.40625 258.824219 305.132812 274.519531 C 304.707031 276.078125 302.566406 281.042969 301.640625 282.355469 C 290.742188 299.785156 266.726562 298.457031 247.738281 298.898438 C 220.828125 298.929688 184.28125 303.585938 159.664062 292.128906 C 160.15625 292.429688 159.148438 291.796875 159.199219 291.808594 C 156.902344 290.277344 154.765625 288.453125 152.8125 286.492188 C 152.8125 286.492188 152.007812 285.621094 152.445312 286.105469 C 131.074219 261.824219 134.402344 212.058594 135.121094 180.382812 C 135.363281 171.511719 136.570312 155.164062 139.453125 145.949219 C 140.0625 143.472656 142.429688 138.296875 143.023438 137.503906 C 143.828125 136.277344 144.707031 135.09375 145.75 134.074219 C 146.011719 133.792969 145.933594 133.617188 145.617188 134.214844 C 147.53125 132.527344 147.988281 132.386719 150.3125 131.664062 C 149.402344 131.890625 150.144531 131.691406 150.332031 131.695312 C 150.605469 131.6875 153.070312 131.421875 151.582031 131.550781 C 152.128906 131.535156 152.699219 131.6875 153.25 131.808594 C 153.589844 131.890625 153.773438 131.757812 153.070312 131.75 C 153.792969 131.980469 154.546875 132.324219 155.191406 132.703125 C 154.691406 132.128906 154.804688 132.421875 155.117188 132.664062 C 155.890625 133.230469 156.632812 133.816406 157.246094 134.546875 C 160.058594 137.519531 163.574219 146.183594 164.828125 152.914062 C 168.257812 170.152344 171.332031 193.6875 173.816406 213.125 C 173.933594 215.648438 174.539062 219.308594 177.863281 218.945312 C 179.589844 218.691406 181.160156 217.109375 180.914062 215.191406 C 179.417969 203.09375 177.789062 190.996094 176.023438 178.90625 C 172.601562 162.921875 172.339844 123.988281 149.695312 124.847656 C 127.601562 130.339844 129.691406 166.480469 128.222656 184.546875 C 127.960938 218.363281 122.660156 279.347656 159.089844 299.5625 C 170.558594 304.890625 183.675781 305.089844 196.054688 306.140625 C 215.097656 307.148438 234.136719 306.0625 253.164062 305.546875 C 271.394531 305.410156 292.824219 304.671875 305.136719 289.167969 C 317.402344 273.460938 313.671875 252.398438 311.429688 234.082031 C 308.09375 214.039062 305.269531 189.675781 287.492188 176.980469 C 266.417969 167.042969 256.703125 187.769531 256.699219 205.867188 C 258.941406 205.945312 261.203125 206.054688 263.445312 206.136719 C 262.035156 189.835938 246.378906 170.515625 228.605469 177.4375 C 216.21875 181.929688 211.089844 196.742188 214.683594 208.789062 C 215.804688 212.457031 221.84375 211.136719 221.261719 207.316406 C 219.679688 190.582031 203.390625 172.265625 186.144531 182.867188 C 175.328125 189.957031 174.023438 204.003906 174.042969 215.800781 C 174.515625 220.253906 181.164062 219.664062 180.914062 215.191406 Z M 180.914062 215.191406 " fill-opacity="1" fill-rule="nonzero"/></g></g></g><g clip-path="url(#2bafba4d3a)"><g clip-path="url(#5cf4027c9b)"><g clip-path="url(#3b2ca315c2)"><path fill="#ffffff" d="M 132.738281 214.359375 C 123.882812 207.730469 114.273438 202.335938 104.636719 196.960938 C 104.882812 197.109375 105.128906 197.261719 105.375 197.410156 C 102.8125 195.839844 100.457031 194.027344 98.378906 191.828125 C 98.585938 192.054688 98.792969 192.28125 99 192.503906 C 97.371094 190.734375 95.953125 188.8125 94.816406 186.691406 C 94.960938 186.960938 95.105469 187.230469 95.25 187.5 C 94.222656 185.53125 93.457031 183.472656 92.949219 181.324219 C 93.011719 181.605469 93.074219 181.886719 93.132812 182.167969 C 92.753906 180.390625 92.5625 178.621094 92.652344 176.789062 C 92.632812 177.082031 92.640625 177.355469 92.617188 177.652344 C 92.675781 176.167969 92.917969 174.742188 93.347656 173.320312 C 93.273438 173.605469 93.175781 173.859375 93.097656 174.144531 C 93.585938 172.542969 94.351562 171.070312 95.214844 169.664062 C 95.0625 169.910156 94.914062 170.160156 94.761719 170.40625 C 95.773438 168.753906 96.980469 167.246094 98.371094 165.929688 C 98.144531 166.136719 97.917969 166.34375 97.695312 166.550781 C 98.726562 165.582031 99.871094 164.769531 101.070312 164.101562 C 100.800781 164.246094 100.53125 164.394531 100.261719 164.539062 C 101.515625 163.878906 102.804688 163.472656 104.164062 163.15625 C 103.878906 163.21875 103.597656 163.277344 103.316406 163.339844 C 105.320312 162.890625 107.382812 162.585938 109.46875 162.636719 C 109.171875 162.613281 108.898438 162.625 108.605469 162.601562 C 110.089844 162.660156 111.589844 162.941406 113.042969 163.347656 C 112.757812 163.273438 112.503906 163.175781 112.214844 163.101562 C 115.316406 164.058594 118.273438 165.535156 121.007812 167.21875 C 120.761719 167.066406 120.511719 166.917969 120.265625 166.765625 C 123.246094 168.601562 126.011719 170.722656 128.699219 172.996094 C 130.082031 174.15625 132.421875 173.976562 133.511719 172.503906 C 137.980469 166.953125 118.511719 157.828125 114.226562 156.644531 C 109.515625 155.253906 104.390625 155.832031 99.789062 157.339844 C 82.199219 164.648438 82.242188 187.453125 95.902344 198.804688 C 101.992188 204.097656 109.675781 207.046875 116.390625 211.386719 C 116.144531 211.234375 115.898438 211.085938 115.652344 210.9375 C 120.054688 213.660156 124.289062 216.601562 128.511719 219.597656 C 129.242188 220.101562 130.085938 220.433594 130.964844 220.363281 C 133.78125 220.265625 135.136719 216.09375 132.738281 214.359375 Z M 132.738281 214.359375 " fill-opacity="1" fill-rule="nonzero"/></g></g></g><g clip-path="url(#166fde0f6c)"><g clip-path="url(#988f5062d5)"><g clip-path="url(#77e192ff20)"><path fill="#ffffff" d="M 105.332031 131.53125 C 102.804688 132.355469 100.214844 133.035156 97.617188 133.628906 C 97.898438 133.566406 98.179688 133.507812 98.460938 133.445312 C 91.265625 135.03125 83.863281 135.742188 76.523438 135.429688 C 76.820312 135.453125 77.09375 135.441406 77.386719 135.464844 C 70.289062 135.167969 63.222656 134.058594 56.441406 132.046875 C 56.726562 132.121094 56.984375 132.21875 57.269531 132.292969 C 54.0625 131.320312 50.964844 130.035156 48.113281 128.25 C 48.359375 128.402344 48.605469 128.550781 48.851562 128.703125 C 46.835938 127.4375 44.941406 125.949219 43.300781 124.234375 C 43.507812 124.457031 43.714844 124.683594 43.921875 124.910156 C 42.585938 123.488281 41.441406 121.882812 40.507812 120.175781 C 40.652344 120.445312 40.796875 120.714844 40.941406 120.984375 C 40.035156 119.253906 39.390625 117.433594 38.945312 115.566406 C 39.007812 115.847656 39.070312 116.128906 39.128906 116.410156 C 38.738281 114.550781 38.511719 112.664062 38.609375 110.78125 C 38.589844 111.074219 38.597656 111.347656 38.574219 111.644531 C 38.644531 109.78125 38.984375 107.910156 39.507812 106.09375 C 39.433594 106.378906 39.335938 106.636719 39.261719 106.921875 C 39.804688 105.140625 40.5625 103.390625 41.566406 101.792969 C 41.414062 102.039062 41.265625 102.285156 41.113281 102.53125 C 41.96875 101.183594 42.96875 99.910156 44.132812 98.800781 C 43.910156 99.007812 43.683594 99.214844 43.460938 99.421875 C 44.71875 98.25 46.171875 97.351562 47.695312 96.550781 C 47.425781 96.695312 47.15625 96.839844 46.886719 96.984375 C 49.214844 95.746094 51.710938 94.808594 54.277344 94.234375 C 53.996094 94.296875 53.714844 94.355469 53.433594 94.417969 C 55.460938 94 57.535156 93.777344 59.621094 93.828125 C 59.324219 93.808594 59.050781 93.816406 58.753906 93.792969 C 60.429688 93.859375 62.121094 94.144531 63.722656 94.628906 C 63.4375 94.554688 63.183594 94.457031 62.894531 94.382812 C 65.613281 95.191406 68.234375 96.394531 70.648438 97.890625 C 70.402344 97.738281 70.15625 97.589844 69.910156 97.4375 C 73.304688 99.53125 76.277344 102.207031 79.160156 104.949219 C 79.699219 105.445312 80.507812 105.664062 81.179688 105.695312 C 88.539062 104.925781 81.742188 96.226562 81.597656 92.097656 C 81.65625 92.378906 81.71875 92.660156 81.78125 92.945312 C 81.230469 90.40625 80.9375 87.773438 81.050781 85.183594 C 81.027344 85.480469 81.035156 85.753906 81.011719 86.046875 C 81.140625 83.351562 81.636719 80.71875 82.429688 78.109375 C 82.355469 78.394531 82.257812 78.648438 82.183594 78.9375 C 83.042969 76.089844 84.1875 73.320312 85.753906 70.8125 C 85.601562 71.058594 85.453125 71.308594 85.300781 71.554688 C 86.375 69.859375 87.621094 68.273438 89.050781 66.886719 C 88.824219 67.09375 88.601562 67.300781 88.375 67.503906 C 89.5625 66.429688 90.835938 65.476562 92.234375 64.757812 C 91.964844 64.902344 91.695312 65.050781 91.429688 65.195312 C 92.855469 64.457031 94.332031 63.917969 95.890625 63.554688 C 95.605469 63.617188 95.324219 63.675781 95.042969 63.738281 C 96.851562 63.335938 98.71875 63.214844 100.582031 63.285156 C 100.285156 63.261719 100.011719 63.269531 99.71875 63.25 C 101.390625 63.3125 103.082031 63.597656 104.71875 64.0625 C 104.429688 63.988281 104.175781 63.890625 103.890625 63.816406 C 105.257812 64.234375 106.570312 64.835938 107.800781 65.589844 C 107.554688 65.4375 107.308594 65.289062 107.0625 65.136719 C 108.316406 65.917969 109.460938 66.875 110.503906 67.945312 C 110.296875 67.71875 110.089844 67.496094 109.882812 67.269531 C 111.175781 68.628906 112.242188 70.195312 113.125 71.894531 C 112.980469 71.625 112.835938 71.355469 112.691406 71.085938 C 113.941406 73.5 114.789062 76.058594 115.40625 78.691406 C 115.34375 78.410156 115.28125 78.125 115.222656 77.84375 C 116.066406 81.710938 116.375 85.675781 116.222656 89.644531 C 116.246094 89.347656 116.238281 89.074219 116.257812 88.78125 C 115.601562 97.855469 113.625 106.84375 111.113281 115.605469 C 111.191406 115.316406 111.289062 115.0625 111.363281 114.777344 C 109.414062 121.1875 106.847656 127.386719 103.609375 133.226562 C 103.21875 133.921875 103.242188 135.066406 103.527344 135.792969 C 104.496094 138.59375 108.625 138.773438 109.84375 136.042969 C 117.472656 122.054688 121.480469 106.183594 122.996094 90.40625 C 124.667969 70.332031 112.726562 50.222656 90.367188 58.277344 C 74.082031 66.046875 71 88.382812 78.292969 103.472656 C 80.085938 102.195312 81.875 100.921875 83.667969 99.648438 C 77.828125 93.988281 70.949219 88.835938 62.777344 87.351562 C 49.164062 85.085938 33.640625 93.992188 32.304688 108.523438 C 29.550781 131.320312 53.039062 140.46875 71.890625 141.796875 C 84 142.992188 96.355469 141.597656 107.964844 137.847656 C 111.835938 136.488281 109.527344 130.039062 105.332031 131.53125 Z M 105.332031 131.53125 " fill-opacity="1" fill-rule="nonzero"/></g></g></g></svg>